<mxfile host="app.diagrams.net" agent="Mozilla/5.0 (X11; Ubuntu; Linux x86_64; rv:136.0) Gecko/20100101 Firefox/136.0" version="26.2.14">
  <diagram name="Page-1" id="xpDszCO26BI6UxoPcyWa">
    <mxGraphModel dx="1152" dy="759" grid="1" gridSize="10" guides="1" tooltips="1" connect="1" arrows="1" fold="1" page="1" pageScale="1" pageWidth="850" pageHeight="1100" math="0" shadow="0">
      <root>
        <mxCell id="0" />
        <mxCell id="1" parent="0" />
        <mxCell id="pCKr9hQZsIhSHEvB2Lfy-9" value="GitHub Land" style="swimlane;whiteSpace=wrap;html=1;" vertex="1" parent="1">
          <mxGeometry x="20" y="10" width="200" height="390" as="geometry" />
        </mxCell>
        <mxCell id="pCKr9hQZsIhSHEvB2Lfy-37" style="edgeStyle=orthogonalEdgeStyle;rounded=0;orthogonalLoop=1;jettySize=auto;html=1;exitX=0.25;exitY=1;exitDx=0;exitDy=0;entryX=0;entryY=0.5;entryDx=0;entryDy=0;" edge="1" parent="pCKr9hQZsIhSHEvB2Lfy-9" source="pCKr9hQZsIhSHEvB2Lfy-2" target="pCKr9hQZsIhSHEvB2Lfy-5">
          <mxGeometry relative="1" as="geometry">
            <Array as="points">
              <mxPoint x="40" y="100" />
              <mxPoint x="40" y="290" />
            </Array>
          </mxGeometry>
        </mxCell>
        <mxCell id="pCKr9hQZsIhSHEvB2Lfy-2" value="&lt;div&gt;GitHub org:&lt;/div&gt;&lt;div&gt;CCHS-Melbourne&lt;/div&gt;" style="rounded=0;whiteSpace=wrap;html=1;" vertex="1" parent="pCKr9hQZsIhSHEvB2Lfy-9">
          <mxGeometry x="20" y="40" width="120" height="60" as="geometry" />
        </mxCell>
        <mxCell id="pCKr9hQZsIhSHEvB2Lfy-3" value="Webhook?" style="rounded=0;whiteSpace=wrap;html=1;" vertex="1" parent="pCKr9hQZsIhSHEvB2Lfy-9">
          <mxGeometry x="60" y="140" width="120" height="60" as="geometry" />
        </mxCell>
        <mxCell id="pCKr9hQZsIhSHEvB2Lfy-4" style="edgeStyle=orthogonalEdgeStyle;rounded=0;orthogonalLoop=1;jettySize=auto;html=1;entryX=0.5;entryY=0;entryDx=0;entryDy=0;" edge="1" parent="pCKr9hQZsIhSHEvB2Lfy-9" source="pCKr9hQZsIhSHEvB2Lfy-2" target="pCKr9hQZsIhSHEvB2Lfy-3">
          <mxGeometry relative="1" as="geometry" />
        </mxCell>
        <mxCell id="pCKr9hQZsIhSHEvB2Lfy-5" value="Hopefully some perfect GitHub API that returns details of [n] latest commits&#39; details" style="rounded=0;whiteSpace=wrap;html=1;" vertex="1" parent="pCKr9hQZsIhSHEvB2Lfy-9">
          <mxGeometry x="60" y="220" width="100" height="140" as="geometry" />
        </mxCell>
        <mxCell id="pCKr9hQZsIhSHEvB2Lfy-12" value="CCHS Network" style="swimlane;whiteSpace=wrap;html=1;" vertex="1" parent="1">
          <mxGeometry x="250" y="10" width="690" height="390" as="geometry" />
        </mxCell>
        <mxCell id="pCKr9hQZsIhSHEvB2Lfy-11" value="NodeRED Land" style="swimlane;whiteSpace=wrap;html=1;startSize=23;" vertex="1" parent="pCKr9hQZsIhSHEvB2Lfy-12">
          <mxGeometry x="20" y="40" width="450" height="320" as="geometry" />
        </mxCell>
        <mxCell id="pCKr9hQZsIhSHEvB2Lfy-15" value="MQTT Broker" style="rounded=0;whiteSpace=wrap;html=1;" vertex="1" parent="pCKr9hQZsIhSHEvB2Lfy-11">
          <mxGeometry x="300" y="80" width="120" height="60" as="geometry" />
        </mxCell>
        <mxCell id="pCKr9hQZsIhSHEvB2Lfy-21" style="edgeStyle=orthogonalEdgeStyle;rounded=0;orthogonalLoop=1;jettySize=auto;html=1;entryX=0;entryY=0.5;entryDx=0;entryDy=0;" edge="1" parent="pCKr9hQZsIhSHEvB2Lfy-11" source="pCKr9hQZsIhSHEvB2Lfy-19" target="pCKr9hQZsIhSHEvB2Lfy-15">
          <mxGeometry relative="1" as="geometry" />
        </mxCell>
        <mxCell id="pCKr9hQZsIhSHEvB2Lfy-23" value="PUB" style="edgeLabel;html=1;align=center;verticalAlign=middle;resizable=0;points=[];" vertex="1" connectable="0" parent="pCKr9hQZsIhSHEvB2Lfy-21">
          <mxGeometry x="-0.1" y="-4" relative="1" as="geometry">
            <mxPoint as="offset" />
          </mxGeometry>
        </mxCell>
        <mxCell id="pCKr9hQZsIhSHEvB2Lfy-19" value="&lt;div&gt;MQTT Pub:&lt;/div&gt;&lt;div&gt;&lt;b&gt;{sign-topic}&lt;/b&gt;&lt;/div&gt;" style="rounded=0;whiteSpace=wrap;html=1;" vertex="1" parent="pCKr9hQZsIhSHEvB2Lfy-11">
          <mxGeometry x="120" y="80" width="120" height="60" as="geometry" />
        </mxCell>
        <mxCell id="pCKr9hQZsIhSHEvB2Lfy-31" style="edgeStyle=orthogonalEdgeStyle;rounded=0;orthogonalLoop=1;jettySize=auto;html=1;entryX=0;entryY=0.5;entryDx=0;entryDy=0;" edge="1" parent="pCKr9hQZsIhSHEvB2Lfy-11" source="pCKr9hQZsIhSHEvB2Lfy-26" target="pCKr9hQZsIhSHEvB2Lfy-30">
          <mxGeometry relative="1" as="geometry" />
        </mxCell>
        <mxCell id="pCKr9hQZsIhSHEvB2Lfy-26" value="WEB REQUEST" style="rounded=0;whiteSpace=wrap;html=1;" vertex="1" parent="pCKr9hQZsIhSHEvB2Lfy-11">
          <mxGeometry x="30" y="220" width="120" height="60" as="geometry" />
        </mxCell>
        <mxCell id="pCKr9hQZsIhSHEvB2Lfy-28" style="edgeStyle=orthogonalEdgeStyle;rounded=0;orthogonalLoop=1;jettySize=auto;html=1;exitX=1;exitY=0.25;exitDx=0;exitDy=0;entryX=0.75;entryY=0;entryDx=0;entryDy=0;curved=1;" edge="1" parent="pCKr9hQZsIhSHEvB2Lfy-11" source="pCKr9hQZsIhSHEvB2Lfy-26" target="pCKr9hQZsIhSHEvB2Lfy-26">
          <mxGeometry relative="1" as="geometry">
            <Array as="points">
              <mxPoint x="170" y="235" />
              <mxPoint x="170" y="200" />
              <mxPoint x="120" y="200" />
            </Array>
          </mxGeometry>
        </mxCell>
        <mxCell id="pCKr9hQZsIhSHEvB2Lfy-29" value="10 seconds" style="edgeLabel;html=1;align=center;verticalAlign=middle;resizable=0;points=[];" vertex="1" connectable="0" parent="pCKr9hQZsIhSHEvB2Lfy-28">
          <mxGeometry x="0.248" relative="1" as="geometry">
            <mxPoint x="3" y="-10" as="offset" />
          </mxGeometry>
        </mxCell>
        <mxCell id="pCKr9hQZsIhSHEvB2Lfy-32" style="edgeStyle=orthogonalEdgeStyle;rounded=0;orthogonalLoop=1;jettySize=auto;html=1;exitX=0.5;exitY=0;exitDx=0;exitDy=0;entryX=0.5;entryY=1;entryDx=0;entryDy=0;" edge="1" parent="pCKr9hQZsIhSHEvB2Lfy-11" source="pCKr9hQZsIhSHEvB2Lfy-30" target="pCKr9hQZsIhSHEvB2Lfy-19">
          <mxGeometry relative="1" as="geometry" />
        </mxCell>
        <mxCell id="pCKr9hQZsIhSHEvB2Lfy-33" value="&lt;div&gt;Yes, pub repo names, commit&lt;/div&gt;&lt;div&gt;messages and commit SHAs&lt;/div&gt;&lt;div&gt;in chronological order&lt;/div&gt;" style="edgeLabel;html=1;align=center;verticalAlign=middle;resizable=0;points=[];" vertex="1" connectable="0" parent="pCKr9hQZsIhSHEvB2Lfy-32">
          <mxGeometry x="0.04" relative="1" as="geometry">
            <mxPoint as="offset" />
          </mxGeometry>
        </mxCell>
        <mxCell id="pCKr9hQZsIhSHEvB2Lfy-30" value="Are any of the latest 5 commits new?" style="rounded=0;whiteSpace=wrap;html=1;" vertex="1" parent="pCKr9hQZsIhSHEvB2Lfy-11">
          <mxGeometry x="285" y="200" width="150" height="60" as="geometry" />
        </mxCell>
        <mxCell id="pCKr9hQZsIhSHEvB2Lfy-14" value="LED Matrix Sign" style="swimlane;whiteSpace=wrap;html=1;" vertex="1" parent="pCKr9hQZsIhSHEvB2Lfy-12">
          <mxGeometry x="500" y="40" width="170" height="200" as="geometry" />
        </mxCell>
        <mxCell id="pCKr9hQZsIhSHEvB2Lfy-13" value="&lt;div&gt;MQTT Sub:&lt;/div&gt;&lt;div&gt;&lt;b&gt;{sign-topic}&lt;/b&gt;&lt;/div&gt;" style="rounded=0;whiteSpace=wrap;html=1;" vertex="1" parent="pCKr9hQZsIhSHEvB2Lfy-14">
          <mxGeometry x="25" y="80" width="120" height="60" as="geometry" />
        </mxCell>
        <mxCell id="pCKr9hQZsIhSHEvB2Lfy-16" style="edgeStyle=orthogonalEdgeStyle;rounded=0;orthogonalLoop=1;jettySize=auto;html=1;entryX=1;entryY=0.5;entryDx=0;entryDy=0;" edge="1" parent="pCKr9hQZsIhSHEvB2Lfy-12" source="pCKr9hQZsIhSHEvB2Lfy-13" target="pCKr9hQZsIhSHEvB2Lfy-15">
          <mxGeometry relative="1" as="geometry" />
        </mxCell>
        <mxCell id="pCKr9hQZsIhSHEvB2Lfy-24" value="SUB" style="edgeLabel;html=1;align=center;verticalAlign=middle;resizable=0;points=[];" vertex="1" connectable="0" parent="pCKr9hQZsIhSHEvB2Lfy-16">
          <mxGeometry x="0.0353" y="2" relative="1" as="geometry">
            <mxPoint as="offset" />
          </mxGeometry>
        </mxCell>
        <mxCell id="pCKr9hQZsIhSHEvB2Lfy-35" style="edgeStyle=orthogonalEdgeStyle;rounded=0;orthogonalLoop=1;jettySize=auto;html=1;entryX=1;entryY=0.5;entryDx=0;entryDy=0;" edge="1" parent="1" source="pCKr9hQZsIhSHEvB2Lfy-26" target="pCKr9hQZsIhSHEvB2Lfy-5">
          <mxGeometry relative="1" as="geometry" />
        </mxCell>
      </root>
    </mxGraphModel>
  </diagram>
</mxfile>
